# xmcd
#
# Track frame offsets: 
#        150
#        15515
#        30310
#        52321
#        66832
#        79251
#        91399
#        102768
#        116378
#        155534
#        173809
#        185154
#        199244
#        227044
#        229728
#
# Disc length: 3284 seconds
#
# Revision: 0
# Processed by: cddbd v1.5.2PL0 Copyright (c) Steve Scherf et al.
# Submitted via: ExactAudioCopy v0.95b3
#
DISCID=c10cd20f
DTITLE=The Doors  - Perception Box Set - Disc 4
DYEAR=1900
DGENRE=
TTITLE0=Tell All The People
TTITLE1=Touch Me
TTITLE2=Shamans Blues
TTITLE3=Do It
TTITLE4=Easy Ride
TTITLE5=Wild Child
TTITLE6=Runnin Blue
TTITLE7=Wishful Sinful
TTITLE8=The Soft Parade
TTITLE9=Who Scared You (Bonus Track)
TTITLE10=Whiskey Mystics And Men (Bonus Track Version 1)
TTITLE11=Whiskey Mystics And Men (Previously Unreleased Bonus Track Ve
TTITLE11=rsion 2)
TTITLE12=Push Push
TTITLE13=Touch Me (Dialogue Bonus Track)
TTITLE14=Touch Me (Bonus Track Take 3)
EXTD=
EXTT0=
EXTT1=
EXTT2=
EXTT3=
EXTT4=
EXTT5=
EXTT6=
EXTT7=
EXTT8=
EXTT9=
EXTT10=
EXTT11=
EXTT12=
EXTT13=
EXTT14=
PLAYORDER=
